<svg id="Image" xmlns="http://www.w3.org/2000/svg" viewBox="0 0 720 720"><defs><style>.cls-1{fill:#1c1610;}.cls-2{fill:#c68641;}.cls-3{fill:#1b719c;}.cls-4{fill:#c14627;}.cls-5{fill:#0e2f29;}.cls-6{fill:#cee2d9;}</style></defs><title>logo</title><path class="cls-1" d="M514.3,165c-1.22,7.62-2.47,15.24-3.65,22.87-.32,2.09-1.07,4.1,1.68,5.67,5.18,2.94,6.63,8.33,7,13.7,1.17,15.44-2.35,29.3-14.65,39.87a3.05,3.05,0,0,0-.64.91c12.35,2.65,25,2,37.56,1.27q16.57-.91,33.13-.93c8.1,0,16.2-.21,24.26.93,11,2.6,21.36.8,31.7-3.42s20.84-5,31.89-3.17c15.83,2.57,27.44,12.34,30.16,27.35,1.48,8.17,1,16.32-6.35,22.13A10.9,10.9,0,0,0,681.9,301c-.16,3.72-2.32,6.82-5.51,9.15-7.63,5.57-14.66,5.8-23,.6-2.13-1.33-3.93-3.85-6.7-3.37-6.35,1.09-12.06-.74-17.41-3.64-7.6-4.12-15.31-6.92-24.15-5.43-23.35,3.93-46.63,8.19-69.24,15.45-5.23.31-7.45,3.48-8.48,8.28-1.55,7.24-5.62,11.75-13.44,13.18s-15.21,3.83-22.72,6.1c-14.76,4.47-28.87,10.29-40.41,21-6.1,14.85-10.15,30.16-11,46.59l5.43-1.36c9.66-1.28,19.47-2.94,29-.09,20,6,35.05,17.92,42.81,37.89,6,15.53,11.65,31.2,14.79,47.64.57,3,1,5.58,5.47,5.86,5.69.35,7.49,3.58,7.53,10.05,0,2.46-.71,5,2.76,6.29,3.3,1.26,5.7,2.53,9.23-.29,12-9.58,25.43-15.26,41.24-13.25a61.68,61.68,0,0,1,12.12,4.63l-.07,0,2.27,1.38-.25-.27,1.37,1.19-.11-.07,4.36,3.73v-.29l-.29,0,3.7,4.4-.1-.12,1.73,2.66-.05,0,1.74,3-.09-.14c.18.91.15,1.92,1.13,2.45l-.16-.22c4.07,12,5.43,24.11.91,36.34l.23-.18a2.81,2.81,0,0,0-1,3.09c-.69-.18-.84.3-1.08.8-15.6,32.3-42.4,53.17-73,69.3-20.49,10.79-43.68,5.23-52.5-18.62-5.9-16-11.42-32.19-10.41-49.65.16-2.72-.79-4.26-2.89-5.88-6.84-5.27-9.74-12.26-7.88-20.87.29-1.32.61-2.41-.27-3.6-3.15-4.29-6.23-8.64-9.41-12.92-1-1.34-1.93-2.46-3.9-.8-4.55,3.84-10.2,5.51-15.77,7.25-5.09.08-10.19.51-15.23-.63A254.46,254.46,0,0,0,401,524.08c-10.67-.52-21.33-1.32-32-.06-10.36.22-10.44.4-12.26,10.23-1.73,9.32-2.1,18.84-4.57,28.19,14.27-3.36,25,1.12,32.08,14,4.57,8.34,8.21,17.19,12.28,25.81,3.77,8,7.65,15.94,13.27,22.87a2.91,2.91,0,0,0,1.14,3l-.13-.15c5.24,12.66,8.74,25.67,7.83,39.55-.35,1.41-.8,2.8-1,4.22-2.91,18-18.32,31.72-36.37,31.29-17.56-.42-31.3-8.11-39.8-24a82.3,82.3,0,0,1-7.78-22.72c-1.35-6.69-3-13.19-6.94-18.93-1.94-2.85-4.15-4.5-7.61-2.45-9.91,1.45-19.76,1.41-29.52-1.1l0,.29-2.47-1,.2.13-7.6-3.82-.16.23.25.13-1.55-1.08.2.14-2.24-1.57-.08.33.33,0-1.55-1.22v.29h.29l-1.37-1.31-1-.89-1.25-1.25-2-2.09-1.32-1.34.29.23-1.23-1.52.06.32.31-.09c-.26-.64-.45-1.36-1.39-1.28l.27.13.13-.28-1.39-2.11.18.17c-5.51-10.1-9-20.81-9.42-32.37-.06-1.58-.07-3-2.14-3.08l-5.8-2.82c-7.44-3.58-12.75-8.4-10.92-17.75.33-1.72-.18-3.6-.3-5.4.22-23,.81-46,3.6-68.93.3-.46.82-.89.88-1.38a205.62,205.62,0,0,1,8.67-39.11c.89-2.65-.53-3.7-1.79-5.2-4.31-5.1-8.28-10.26-7.74-17.61a59.9,59.9,0,0,1,2.78-13.42c6.75-21.67,13.65-43.28,20.34-65,.37-1.21,3.18-3.47-1-4.47-15.11-3.64-29.83-9-45.54-10-5.75-.34-10-3.3-12.9-8.24-2.28-3.89-2.93-8.26-3.42-12.64-.23-2-.2-3.76-2.83-4.64-13.48-4.54-26.88-9.32-40.3-14-.39-.39-.71-.93-1.17-1.13-19.27-8.29-38.49-16.68-56.68-27.2-1.9-1.1-3.44-.39-5.07.74-8.92,6.17-18.31,5.76-27.71,1.45a46.44,46.44,0,0,0-11.48-3.12c-6.77-1.23-13.24-2.7-20-.12-.87.33-2.15-.26-3.2-.54-15.13-4-22.84-24-14.71-37.74,3.78-6.37,9.08-11.41,13.75-17,7.9-9.5,17.83-14,29.64-12.55,15.33,1.82,29.68,7,42.08,16.68,2.62,2,5.26,4.06,8.82,4.12,4.45,3.72,10.23,3.66,15.4,5.07,27.85,7.6,55.65,15.46,83.79,21.79,10.35,2.33,21.22,3.19,32.78,5.48l-9.09-14.78L233,225.95l.12.17c-2.74-10.65-4.1-21.3,0-31.94l-.13.15,1.61-3.32-.17.15,1.82-3.7-.05.08,1.41-2.27-.29,0v.29l1.35-1.38-.24.25,1.32-1.37-.24.24L241,182l-.34,0,0,.34,2.35-1.45-.18.15c3.78-1.68,7.88-1.24,11.63-1.59-5.29-30.06-3.85-59.36,6.69-88h-.27l2.34-4.62-.18.27,1.35-2.43-.32-.06,0,.33,1-1.56-.08.12,1.37-2.29-.15.2C268,79.58,269,77.19,270,74.88l-.27-.13s-.1.28-.09.28l1-1.54-.11.17L272,71.32h-.34l0,.34L273,70.18l-.25.23L274,69.05l-.2.21,1.28-1.32-.19.19,1.3-1.26.94-1,1.2-1.3-.15.13,1.22-1.23-.06.09,1.72-2-.26-.15s-.11.28-.11.28l1.15-1.54-.26.25,1.11-1.4,0,.07,3.48-4.47,1-.92,3.47-2.33-.14.11a6.17,6.17,0,0,0,3.43-2.35l-.1.08,3.31-2.37,1.08-.92,4.92-4.33-.3-.06s0,.3,0,.3l1.43-1.4h-.32s.06.31.06.31l1.37-1.42H305s.05.31.06.31l1.37-1.42-.35,0,.08.34L308.35,37l-.16.14c2.77-.82,5.52-1.67,7.85-3.48l-.13.08,1.5-1-.23.18.2.21,4.41-2.44,0,.19,2.86-1.84,4.53-2.92c6.79-1.52,13.91-1.9,20-5.76l-.14.09c8.33-2.13,17.07-1.38,25.37-3.68,15.22.37,30.41,1.63,45.21,5,8.09,1.86,15.81,5.6,23.45,9.06a113.23,113.23,0,0,1,34.34,24.22c12.28,12.59,23.2,26.45,29.77,43.15,1.27,3.22,2.84,6.32,4.27,9.47l1.93,8c1.67,10.37,3.07,20.77,2.55,31.3C515.72,153,514.89,159,514.3,165ZM333.47,629c1.13,1.26,1.92.11,2.8-.39,6.14-3.54,13.49-5.83,16.69-12.81a36.94,36.94,0,0,0,.07-31.48c-1.25-2.81-2.91-4.78-6.83-3.17-3.68,1.51-2.26,3.41-2,6,1.48,14.38,3.64,29-8.6,40.55-.87.13-1.78.21-2,1.32l-.4.64.42,0Zm48.31-143.89c-7.46,8.94-12,19.76-18.78,29.17-2,2.8-.43,4.23,3,3.89,22.83-2.26,45.46-.8,68.06,3.15,9.16,1.6,18.42.78,26.47-4.89,1.4-1,3.74-1.85,2.84-4.13a49.2,49.2,0,0,0-4.17-7.7c-.41-.66-1.32,0-1.91.44A28.6,28.6,0,0,1,438,510.6c-.47,2.79,2.72,4.41,1.32,7.06-2.33-.37-2.35-3.39-4.54-3.78-7-15.82-10.56-32.24-7.15-49.47,4.84-24.45,14.65-45.2,42-52-21.11-2.35-45.95,6.09-64.46,21.76a35.22,35.22,0,0,0-3.25,2c-9,6.94-17.8,14.25-27.78,19.88-18.91,10.67-39.38,14-60.73,12.38-18-1.33-35.15-5.83-50.19-16.46-6.43-4.55-6.41-4.57-8.23,3.22-10.58,32.54-12.76,65.88-10.8,99.86.58,10.06,5.49,14.84,13.33,18.6a20.29,20.29,0,0,0,3,1.32c23.69,6.89,47.27,5.78,70.7-1.27,10.64-3.2,16.58-10.11,17.29-21.59A131.93,131.93,0,0,1,354,521.76c5.24-17.14,18.66-28.77,29.51-42.11.14-.17.69,0,1,0l-.09-.07C384.65,481.95,382.28,483,381.77,485.06Zm-98-162.63.07.09c-.69-1.64.53-2.82,1.06-4.12,4.92-12.08,7-24.74,7.65-37.68.31-6-1.87-11-5.66-15.66-3.18-3.87-7.17-1.93-10.81-1.94-6.85,0-13.36-1.45-18.79-5.47-8.38-6.19-18.29-7.24-27.9-9.48-2.82-.66-3.61.3-3.32,3,.59,5.68.53,11.46,1.55,17a84.38,84.38,0,0,1-6.4,51.74c-.93,2-1.15,3.29,1.78,3.71,6.55.92,13.08,2,19.55,3.34a130.82,130.82,0,0,1,32.89,11.2c-4.74,1.19-5.73,3.93-6.65,7-6.37,21.31-12.76,42.62-19.4,63.85-4.89,15.62-4.82,20.45,10.78,33.92a39.29,39.29,0,0,0,5,3.51c27.52,17.13,56.89,20.69,88,12.23,17.41-4.73,30.95-15.8,44.92-26.32,9.23-7,18-14.78,29.08-18.78,4-1.44,5.94-3.29,5.89-7.27-.13-11.28,3.53-21.74,7-32.22a381.14,381.14,0,0,1,22.52-53.24l1.11.88c-3.21,10.1-8.21,19.62-10.86,31.31a117.89,117.89,0,0,1,27.47-14.38c10.67-4.11,22-6.11,32.8-9.61a13.15,13.15,0,0,0,9.25-9.12c2.63-7.72,4-15.66,5.79-23.54,2.64-11.88.49-23-6.11-33.25-5.05-7.88-9.23-9.46-18.51-7.49-3.08.65-4.39,1.8-4.85,4.81C495,284.06,482.2,301.49,462.48,314c-16.09,10.24-32.92,18.88-52.48,20.18-3.45.23-5.74,2.24-8,4.37-6.09,5.63-13.1,9.64-21.4,10.51-21.21,2.22-44-10.54-53.88-29.69-3.58-6.9-6.54-14.12-13.71-18.71-6.46-4.13-11.78-9.81-16.41-17.36C297.62,298.86,291.75,311,283.77,322.43Zm4.87-78.71c1.23,4.75,2.52,9.49,3.68,14.27,5.16,21.35,18.83,36,36.46,48.09,39.28,27,80,31.36,122.05,7.84,26.11-14.59,43-35.68,43.66-67.48.19-9.44-.19-19.06,2.45-28.52,6.48-23.2,9.67-46.88,7.1-71a63.79,63.79,0,0,0-13.38-33.4c-2.15-2.72-3.61-2.67-6.16-.46a65.3,65.3,0,0,1-16.3,10.29c-17.07,7.6-35.18,10.69-53.61,12-31.23,2.22-60.43-7.17-89.53-16.61-4.26-1.38-5.62-.67-7,3.41-9.94,29.16-16,59.31-22.94,89.23-.52,2.25.74,6.07-1.46,6.45-2.82.49-2.85-3.6-4.15-5.62-6.13-9.49-12.2-19-22.88-24.11-13.66-6.59-26.9-.61-30.11,13.65-1.39,6.18.25,12.22,2,17.95,4.93,16,12.84,29.87,30.14,35.51C279.49,258.77,286.14,254.69,288.63,243.72ZM99.45,253.87c1.43.88,2.63,1.66,3.87,2.37,35.21,20.18,73.13,33.76,111.6,46.08,4.74,1.52,6,.24,6.81-4.09,2.11-12,.43-23.8-.56-35.73-.78-9.38-5.37-13.63-14.15-16.2-20.31-5.95-40.75-11.4-61.13-17.07-19.85-5.52-40.43-8.54-57.94-21.45-9.84-7.26-22.37-10.27-35.15-9.38-7.24.5-12.65,5.11-14.12,11.83a14.93,14.93,0,0,0,7.5,16.85c2.34,1.34,4.11,1.43,6.52-.18a29.7,29.7,0,0,1,17.44-5.39c.72,0,1.42-.48,2.14-.51,3-.1,5.31-2,8.7-3.84-2.48,6.61-7.05,9.09-12.32,8.81-12.5-.64-18.32,7.69-24.08,16.5-1.22,1.86-.82,3.35.33,5,5,7.3,14.43,8.39,20.29,1.92,2.61-2.88,4.5-2.72,7.94-1.29,8.76,3.62,17.79,4.25,26.49-.7,1-.56,1.55-2.58,3.06-1.21a3.42,3.42,0,0,1,.4,4.14C102.34,251.66,100.88,252.54,99.45,253.87ZM481,528.93c11-16.55,24.86-27.61,44.18-30.61,2.45-.38,2.17-2.07,1.64-3.78C521.16,476.46,516.53,458,507.92,441c-5.06-10-12.36-18-23.59-21.13-18.27-5.1-35.57,4-44.41,22.85a83.83,83.83,0,0,0-6.77,51.59c1.7,9.63,4.81,12.11,14.13,9,8.75-2.88,9.32-4.09,6.6-12.78a49.12,49.12,0,0,1-2.5-10.16c-.57-6.56-1.39-13.26,1.64-19.51C455.43,486.13,466.88,507.48,481,528.93Zm50.63-220.78c23.66-8.25,47.14-12.63,70.84-16,8.57-1.2,16.62-1.59,24.73,3.92,9.49,6.44,20.68,7.12,31.88,3.63,1.78-.55,3.49-2.07,5.64-1.1-1.35,3.74-5.37,4.78-7.7,7.57,6.25,3.52,12,2.91,16.93-1.57,4.65-4.25,4.69-7.06.45-11.65-3.84-4.15-9.11-6.2-13.54-9.47-3.33-2.46-5.73-5.31-4.88-10.47,4.89,4.77,7.84,2.41,10.39-1.87.91-1.53,1.82-3.72,4.14-2.45s1.47,3.43.89,5.42c-.87,3-4.09,4.11-5.56,6.9,3.69,1.93,7.37,3.59,10.78,5.7,5,3.1,6.51,2.83,9.12-2.55a19.56,19.56,0,0,0,2.07-8c.46-13.21-7.33-23.06-22.33-26.76s-29.23-.94-43.12,5c-3.54,1.51-7.15,3.92-11,3.29-11.88-2-23.87-1.56-35.8-2.35-14.56-1-29.08.68-43.62,1-4.36.09-6.13,1.35-3.26,6.15,5.14,8.62,8.56,17.89,6.42,28.29C534,296.19,533,301.56,531.62,308.16Zm2,324.17c5.38.62,10.68-1.51,15.89-3.94,14-6.54,25.24-17,37.24-26.41,17.5-13.7,30-30.64,35.11-52.57,2-8.53-.86-15.76-8.06-20.56s-18.6-3.64-26.13,2.85a93.31,93.31,0,0,0-17.82,20.95c-11.71,18.45-22.33,37.64-37.74,53.54-3.48,3.59-7,7.52-8.68,12.63C519.66,630,521.25,632.33,533.59,632.33ZM351.18,630c3.42-2.39,6.73-4.36,9.64-6.81,4.52-3.8,6.11-4.11,8.94,1a81.86,81.86,0,0,0,21.85,25.87c2.26,1.74,3.82,4.37,5.82,6.72a3,3,0,0,1-3.62-.59c-5.79-5.38-10.89-3.85-17.32-.14-9.36,5.4-19.64,9.48-31,8-3.12-.41-3,.72-2.37,3,3.43,12.53,10.46,21.46,23.95,23.68,10.48,1.73,22.84,0,27.45-9.91,9.25-19.86,9.36-38.88-3.82-57.3-8.14-11.37-14.09-24-20-36.64-2.61-5.6-4.24-12.84-12-14.69-2.18-.52-4-.76-5.38,1.28s.45,3,1.38,4.24c10.6,14.3,9.84,38-2.92,49.13C351.14,627.46,350.47,628.16,351.18,630Zm-20.6-42.87c-2.84-.74-3.21-4.71-7.31-4-19.32,3.52-38.72,4.48-58.05-.19-2.49-.6-3.25.21-2.94,2.86a69.52,69.52,0,0,0,6.94,23.71c12,23.63,44.71,24.86,60.31,14.76,9.6-6.21,13.55-26.16,7.95-38.33-.91-2-1.89-4.63-4.37-4.46C329.68,581.78,332.28,585.31,330.59,587.17Zm173,21.85c2.43-3.34,4.19-5.9,6.09-8.36,9.33-12,19.48-23.44,27.62-36.41,6-9.48,10.55-19.75,17.69-28.55s13.26-18.6,24.28-23.44c5.21-2.29,11-2.56,16.19-4.63a46.5,46.5,0,0,0-32.81,11.46c-12.12,10.39-22.08,22.63-28.68,37.34-1.15,2.58-2.57,3.53-5,1.69-6.88-5.12-13-11-15.89-19.26-1.25-3.56-2.7-2.89-4.64-1-5.15,4.92-9.3,10.69-10.81,17.63C493.59,573.67,498,591,503.57,609Zm11.52,18c-.41-6.19,1.89-11.24,5.77-15.69,12.79-14.69,25.49-29.43,35.39-46.35,5.36-9.16,10.85-18.27,17.35-26.71,12.29-15.94,26.71-20.79,44.53-14-2.73-3.88-5.07-6.38-8.26-8.21-10.86-6.21-21-3.08-30.56,2.82-10.37,6.38-18.15,15.45-24.54,25.72-8.31,13.38-15.58,27.41-25.16,40-6.22,8.17-13.51,15.57-18.51,24.63C506.44,617.76,507.12,620.41,515.09,627.06ZM359.45,567.44c5.67,1.5,9.22,5.49,11.59,10.36,8.48,17.4,17.11,34.67,27.28,51.21,7.3,11.88,9.27,25.45,6,39.29-2.56,10.83-5.7,21.39-17.54,26.13-3.42,1.37-7.08,1.71-11.48,2.81,17.59,1.69,31.42-7.63,35.85-23.52,4.93-17.68-.34-33.64-9.06-48.66a270.64,270.64,0,0,1-16.7-33.88c-3-7.47-6.72-14.63-12.84-20.24A13.64,13.64,0,0,0,359.45,567.44ZM490,555.51c1.25-2.39,2.28-4.55,3.47-6.62,9.89-17.21,21.78-32.06,42.9-35.82,1.81-.32,3.53-1,2.72-3.15-.89-2.36-.5-6-4.43-6.06-4.4,0-8.77-.34-13.17.87-15,4.15-26,13.6-34.4,26.21C480.46,540.89,481.44,548.64,490,555.51ZM398,334.76c-25.6.21-48.38-6.54-69.9-21.8C340.36,336.58,376.46,354.16,398,334.76ZM499,243.3c3.8-1.34,6-4.32,7.79-7.48,3.81-6.66,5.46-14,6.31-21.57.48-4.29.62-8.45-1.1-12.45-.73-1.7-1.88-3.51-4-3.16-1.79.29-1.55,2.23-1.89,3.62-2,8-4,16.07-6,24.12C498.81,231.85,496.88,237.31,499,243.3ZM25.54,223c-.8,5,2.32,8.43,4.88,11.94,5.44,7.47,8.53,7.49,14.51.69,1.92-2.19,2.87-3.71-.65-5.23-5.67-2.44-8.28-7.49-10.4-12.88-.75-1.9,0-5.3-2.58-5.32s-3.87,3.11-4.83,5.45C25.8,219.31,25.83,221.23,25.54,223ZM22,226.71c-4.2,8-.11,20.58,8.14,25.75,2.84,1.78,6.82,3.64,8.85.25,1.63-2.72-2-5.18-4.45-6.54a21,21,0,0,1-10.88-14.49C23.31,230.09,23.35,228.39,22,226.71ZM90.45,256c-3.64,0-6.9.34-10.06-.09a29.39,29.39,0,0,1-9.77-3.52c-1.75-.94-2.53,1-3.48,1.94-1.23,1.28-.35,2.25.62,3.24C71.78,261.63,86,263.33,90.45,256Zm268.84,393.2c4.82,6.59,4.73,6.42,13.53,1.26,5.77-3.39.45-6.23.34-10.19C368.71,644.47,364,646.74,359.29,649.16ZM206.11,307.41c.55,2.5.9,4.46,1.42,6.38.81,3,1.49,7.05,4.75,7.26,2.89.19,3.8-3.88,5.16-6.37,1-1.79,2.15-3.82-1-4.67S210.07,307.37,206.11,307.41ZM521.3,541c3.79-8.72,11-13.72,18.93-18-6.8.27-12.5,3.25-17.89,6.91C516.14,534.13,516.17,534.39,521.3,541ZM367.87,631.93c-.83-1.24-1.51-2.85-2.69-3.88-1.55-1.36-2,.88-2.92,1.45-2.78,1.73-5.49,3.59-8.11,5.55-1,.74-4,.6-2,3.09,1.15,1.47,1.76,4.18,5,2.39s6.43-3.36,9.17-5.78C367.08,634,368.09,633.41,367.87,631.93ZM542.09,529.82c-8.14,3.32-12.94,8-16.44,14.27-1.68,3,1,3.28,2.36,4.44,2.09,1.81,2.18-.14,2.81-1.43C533.64,541.27,537.64,536.17,542.09,529.82ZM359.9,655.59c-1.95-4.92-5.54-5.49-9.95-4.26-1.56.43-3.2.53-4.79.89-1.13.26-3.24-1-2.89,1.74.24,1.83.47,3.76,2.94,3.86C350.27,658,355.33,658.09,359.9,655.59ZM337.68,643c3.22,2.82,6.44,0,9.5.46a3,3,0,0,0,3.33-1.31c.45-.88-.56-1.55-1.06-2.28-1.13-1.65-2.38-1.07-3.76-.43C343.12,640.59,340.52,641.7,337.68,643Zm10.42-12.29-13.18,6C341,636.56,345.12,635,348.1,630.66Z"/><path class="cls-2" d="M288.63,243.72c-2.49,11-9.15,15.05-20,11.51-17.29-5.65-25.21-19.47-30.14-35.51-1.76-5.73-3.39-11.76-2-17.95,3.21-14.26,16.45-20.24,30.11-13.65,10.67,5.15,16.75,14.62,22.88,24.11,1.3,2,1.33,6.11,4.15,5.62,2.2-.39.94-4.2,1.46-6.45,6.93-29.93,13-60.07,22.94-89.23,1.39-4.08,2.75-4.79,7-3.41,29.1,9.44,58.3,18.83,89.53,16.61,18.43-1.31,36.54-4.4,53.61-12a65.3,65.3,0,0,0,16.3-10.29c2.55-2.21,4-2.26,6.16.46A63.79,63.79,0,0,1,504,146.93c2.57,24.11-.63,47.79-7.1,71-2.64,9.47-2.26,19.08-2.45,28.52-.64,31.79-17.56,52.89-43.66,67.48-42.1,23.52-82.77,19.2-122.05-7.84-17.63-12.14-31.31-26.74-36.46-48.09C291.16,253.21,289.86,248.47,288.63,243.72Zm55.25-50.93a18,18,0,0,1,8.71,1.77c11.61,5.28,22.1,12.41,32.54,19.63,1.8,1.25,3.71,2.36,5.62,3.43,1.14.64,2.45,1.06,3.62.13s.73-2.34.23-3.53a32.35,32.35,0,0,0-2.09-4.48c-7.54-12.27-18.13-21.09-31-27.26-8.68-4.15-17.18-2.93-25.49,1a16.06,16.06,0,0,0-8.14,8.65c-.56,1.38-1.46,2.95-.48,4.16,1.23,1.51,2.71-.05,3.91-.56C335.21,194.09,339.16,192.69,343.89,192.79Zm147.6-4.26a1.82,1.82,0,0,0,2.33-1.08c.58-1.48-.51-2.44-1.4-3.33-3.86-3.88-8.48-5.76-14-4.92-17.72,2.73-28.7,14.51-37.88,28.56-1.07,1.64-1.82,4.06-.09,5.61s3.92.62,5.56-.67c4-3.17,7.88-6.61,12-9.7C467.7,195.7,476.49,186.24,491.49,188.53ZM367.56,251.75c5.23.11,10.32-.36,15.1-2.61,1.52-.72,3-1.72,2.83-3.67s-1.78-2.7-3.45-3.08a19.65,19.65,0,0,0-3.82-.45c-7.92-.21-15.66-1.63-23.45-3-7-1.22-13.31-4-19.73-6.75-1.32-.56-3-1.22-4.12.07-1.35,1.53-.32,3.13.62,4.5a15.79,15.79,0,0,0,2.24,2.42C343.27,248.13,355,251.07,367.56,251.75Zm-88.44-19.3c.32-4.81-1-7.69-2.17-10.52-4.29-10.61-16.5-20.19-25.22-19.72-2,.11-5.11-.41-5.34,2.48-.19,2.39,2.79,1.74,4.34,2.44a22.31,22.31,0,0,0,3.66,1.21c3.84,1,4.82,2.38,2.54,6.41-3.5,6.18-1.61,20.86,5.18,24.55,1,.52,1.83,1.5,3,.81s.53-1.9.33-2.95c-1-5.14-1.28-10.19,1.47-15,1.47-2.58,2.73-3.33,4.66-.42C273.65,224.91,275.94,228,279.12,232.45ZM439.65,294c-19.51,8.93-38.87,9.43-58.22,3.71-8.09-2.39-17.46-4.9-19-15.93,0-.32-.89-.56-1.39-.79-4.16-1.85-10.52.91-12.9,6.4,5.94-4.44,8.84-1.18,11.78,3.06,2.1,3,5.34,5,8.62,6.77,20.46,10.72,41.64,10.63,63.18,4A11.16,11.16,0,0,0,439.65,294Zm12.44-45.78a40.68,40.68,0,0,0,20.76-5.4c5.13-2.91,9.3-6.57,10.72-12.62.49-2.11.46-4.28-1.31-5.56-2.05-1.48-3.28.68-4.57,1.84-8.84,8-18.58,13.79-31.05,13.22a12.33,12.33,0,0,0-2.73.31c-1.53.28-2.79.91-3.06,2.68a3.34,3.34,0,0,0,2.32,3.9A21,21,0,0,0,452.09,248.24Zm-56.47,19.31c-1.7,7.09-.19,11,5.46,13.86,10.71,5.39,21.61,4.54,31.68-1.32,8.82-5.13,8.27-16.9-.76-21.55-7.36-3.79-15.27-3.49-23-.81-1,.34-2.7.48-2.23,2.84,6-1.08,12-2.15,18-.6,4.68,1.21,8.8,3.12,8.72,9s-4.29,8-8.84,9.08C413.27,280.65,402.45,280.86,395.62,267.55Z"/><path class="cls-3" d="M462.55,320.94A381.14,381.14,0,0,0,440,374.18c-3.44,10.48-7.11,20.94-7,32.22,0,4-1.92,5.84-5.89,7.27-11,4-19.85,11.82-29.08,18.78-14,10.53-27.51,21.59-44.92,26.32-31.13,8.46-60.5,4.9-88-12.23a39.29,39.29,0,0,1-5-3.51c-15.6-13.46-15.67-18.29-10.78-33.92,6.64-21.23,13-42.53,19.4-63.85.92-3.08,1.91-5.82,6.65-7A130.82,130.82,0,0,0,242.56,327c-6.48-1.32-13-2.42-19.55-3.34-2.93-.41-2.71-1.7-1.78-3.71a84.38,84.38,0,0,0,6.4-51.74c-1-5.59-1-11.37-1.55-17-.29-2.75.5-3.7,3.32-3,9.61,2.24,19.52,3.29,27.9,9.48,5.44,4,11.94,5.47,18.79,5.47,3.64,0,7.64-1.94,10.81,1.94,3.78,4.61,6,9.64,5.66,15.66-.68,12.94-2.73,25.6-7.65,37.68-.53,1.3-1.76,2.48-1.06,4.12l-.32.26.24-.34c8-11.42,13.85-23.57,12.8-39.1,4.64,7.55,10,13.22,16.41,17.36,7.17,4.59,10.13,11.81,13.71,18.71,9.92,19.15,32.67,31.91,53.88,29.69,8.3-.87,15.31-4.88,21.4-10.51,2.3-2.13,4.59-4.14,8-4.37,19.56-1.3,36.39-9.94,52.48-20.18,19.72-12.55,32.56-30,36.16-53.49.46-3,1.77-4.15,4.85-4.81,9.28-2,13.46-.38,18.51,7.49,6.6,10.29,8.75,21.38,6.11,33.25-1.75,7.88-3.16,15.82-5.79,23.54a13.15,13.15,0,0,1-9.25,9.12c-10.85,3.5-22.13,5.5-32.8,9.61a117.89,117.89,0,0,0-27.47,14.38c2.65-11.69,7.65-21.21,10.86-31.31.33-.75.85-1.5,0-2.28ZM342.09,437.54c26.3-2.29,49.94-13.29,73.8-23.62C390.49,419.12,367.37,431.62,342.09,437.54Z"/><path class="cls-4" d="M405.16,434.2c18.51-15.67,43.35-24.11,64.46-21.76-27.33,6.78-37.14,27.53-42,52-3.41,17.22.11,33.65,7.15,49.47-12.51.56-24.82.12-36.92-3.94-10.81-3.62-16-10.66-14.92-22.07a2.59,2.59,0,0,0-1.17-2.82c.51-2,2.88-3.11,2.68-5.46l.75-.66-.56-.26-.1,1c-.36,0-.91-.18-1,0-10.85,13.33-24.27,25-29.51,42.11a131.93,131.93,0,0,0-5.46,30.37c-.71,11.48-6.65,18.39-17.29,21.59-23.43,7.05-47,8.16-70.7,1.27a20.29,20.29,0,0,1-3-1.32c-7.84-3.76-12.75-8.54-13.33-18.6-2-34,.22-67.33,10.8-99.86,10.08,4.9,20,10.27,30.83,13.36,16.32,4.65,33.09,3.8,49.79,4.65,16.24.83,30-4.73,42.93-13.11,10.24-6.61,17.36-16.93,27.16-24.17C406.38,435.44,405.87,434.63,405.16,434.2Z"/><path class="cls-2" d="M99.45,253.87c1.43-1.32,2.9-2.21,3.63-3.5a3.42,3.42,0,0,0-.4-4.14c-1.51-1.37-2.07.65-3.06,1.21-8.69,4.95-17.73,4.32-26.49.7-3.44-1.42-5.33-1.59-7.94,1.29-5.86,6.47-15.34,5.38-20.29-1.92-1.15-1.7-1.54-3.19-.33-5,5.76-8.81,11.58-17.14,24.08-16.5,5.26.27,9.84-2.2,12.32-8.81-3.38,1.82-5.7,3.75-8.7,3.84-.72,0-1.42.49-2.14.51a29.7,29.7,0,0,0-17.44,5.39c-2.4,1.62-4.17,1.52-6.52.18a14.93,14.93,0,0,1-7.5-16.85c1.47-6.72,6.88-11.32,14.12-11.83,12.78-.89,25.31,2.13,35.15,9.38,17.51,12.91,38.09,15.93,57.94,21.45,20.38,5.67,40.82,11.13,61.13,17.07,8.79,2.57,13.37,6.82,14.15,16.2,1,11.93,2.67,23.76.56,35.73-.76,4.33-2.07,5.61-6.81,4.09-38.47-12.32-76.39-25.9-111.6-46.08C102.08,255.53,100.88,254.75,99.45,253.87Z"/><path class="cls-2" d="M481,528.93c-14.11-21.45-25.56-42.8-28-68-3,6.26-2.21,13-1.64,19.51a49.12,49.12,0,0,0,2.5,10.16c2.72,8.69,2.14,9.9-6.6,12.78-9.31,3.06-12.42.58-14.13-9a83.83,83.83,0,0,1,6.77-51.59c8.85-18.86,26.15-28,44.41-22.85C495.56,423,502.86,431,507.92,441c8.61,17,13.24,35.47,18.88,53.55.53,1.71.81,3.4-1.64,3.78C505.84,501.32,492,512.38,481,528.93Z"/><path class="cls-2" d="M531.62,308.16c1.33-6.6,2.4-12,3.5-17.33,2.13-10.4-1.29-19.67-6.42-28.29-2.86-4.8-1.09-6.06,3.26-6.15,14.54-.31,29.05-1.94,43.62-1,11.93.78,23.92.39,35.8,2.35,3.83.63,7.44-1.78,11-3.29,13.89-5.91,28.26-8.63,43.12-5s22.79,13.55,22.33,26.76a19.56,19.56,0,0,1-2.07,8c-2.61,5.37-4.11,5.64-9.12,2.55-3.41-2.11-7.09-3.77-10.78-5.7,1.47-2.79,4.69-3.9,5.56-6.9.58-2,1.4-4.17-.89-5.42s-3.23.92-4.14,2.45c-2.55,4.27-5.51,6.64-10.39,1.87-.86,5.15,1.54,8,4.88,10.47,4.43,3.27,9.7,5.32,13.54,9.47,4.25,4.59,4.2,7.39-.45,11.65-4.9,4.48-10.67,5.09-16.93,1.57,2.33-2.78,6.34-3.82,7.7-7.57-2.15-1-3.87.55-5.64,1.1-11.2,3.48-22.39,2.8-31.88-3.63-8.12-5.51-16.17-5.12-24.73-3.92C578.76,295.53,555.28,299.91,531.62,308.16Z"/><path class="cls-5" d="M533.59,632.33c-12.34,0-13.92-2.37-10.18-13.5,1.72-5.11,5.2-9,8.68-12.63,15.41-15.9,26-35.09,37.74-53.54a93.31,93.31,0,0,1,17.82-20.95c7.53-6.49,19-7.57,26.13-2.85s10,12,8.06,20.56c-5.1,21.93-17.61,38.86-35.11,52.57-12,9.4-23.23,19.86-37.24,26.41C544.27,630.82,539,632.95,533.59,632.33Z"/><path class="cls-5" d="M351.18,630c-.72-1.88,0-2.58.63-3.16,12.75-11.15,13.52-34.84,2.92-49.13-.93-1.26-2.73-2.27-1.38-4.24s3.19-1.8,5.38-1.28c7.77,1.86,9.4,9.1,12,14.69,5.9,12.67,11.86,25.27,20,36.64,13.18,18.41,13.07,37.44,3.82,57.3-4.61,9.89-17,11.64-27.45,9.91-13.49-2.22-20.52-11.15-23.95-23.68-.63-2.28-.74-3.41,2.37-3,11.34,1.49,21.61-2.58,31-8,6.43-3.71,11.52-5.24,17.32.14a3,3,0,0,0,3.62.59c-2-2.36-3.57-5-5.82-6.72a81.86,81.86,0,0,1-21.85-25.87c-2.83-5.12-4.42-4.82-8.94-1C357.92,625.68,354.61,627.65,351.18,630Z"/><path class="cls-2" d="M330.59,587.17c1.69-1.86-.9-5.39,2.54-5.62,2.48-.17,3.46,2.49,4.37,4.46,5.61,12.17,1.65,32.12-7.95,38.33-15.6,10.1-48.32,8.87-60.31-14.76a69.52,69.52,0,0,1-6.94-23.71c-.31-2.65.45-3.46,2.94-2.86,19.33,4.67,38.73,3.72,58.05.19C327.37,582.46,327.75,586.43,330.59,587.17Z"/><path class="cls-5" d="M503.57,609c-5.54-18-10-35.35-6-53.56,1.51-6.93,5.67-12.71,10.81-17.63,1.94-1.86,3.39-2.52,4.64,1,2.91,8.28,9,14.14,15.89,19.26,2.48,1.84,3.89.89,5-1.69,6.59-14.71,16.56-27,28.68-37.34a46.5,46.5,0,0,1,32.81-11.46c-5.23,2.07-11,2.34-16.19,4.63-11,4.84-17.11,14.6-24.28,23.44s-11.74,19.07-17.69,28.55c-8.15,13-18.29,24.37-27.62,36.41C507.77,603.11,506,605.67,503.57,609Z"/><path class="cls-6" d="M515.09,627.06c-8-6.65-8.65-9.29-4-17.76,5-9.06,12.28-16.46,18.51-24.63,9.59-12.59,16.85-26.62,25.16-40,6.38-10.27,14.17-19.34,24.54-25.72,9.58-5.9,19.69-9,30.56-2.82,3.2,1.83,5.54,4.33,8.26,8.21-17.82-6.82-32.24-2-44.53,14-6.51,8.44-12,17.55-17.35,26.71-9.91,16.92-22.6,31.66-35.39,46.35C517,615.82,514.69,620.87,515.09,627.06Z"/><path class="cls-2" d="M381.77,485.06a2.59,2.59,0,0,1,1.17,2.82c-1.12,11.41,4.11,18.45,14.92,22.07,12.11,4.06,24.42,4.5,36.92,3.94,2.19.39,2.21,3.41,4.54,3.78,1.4-2.65-1.79-4.27-1.32-7.06A28.6,28.6,0,0,0,457.32,505c.6-.44,1.5-1.09,1.91-.44a49.2,49.2,0,0,1,4.17,7.7c.9,2.28-1.44,3.14-2.84,4.13-8.05,5.67-17.32,6.49-26.47,4.89-22.59-4-45.22-5.41-68.06-3.15-3.47.34-5-1.09-3-3.89C369.76,504.82,374.31,494,381.77,485.06Z"/><path class="cls-6" d="M359.45,567.44a13.64,13.64,0,0,1,13.11,3.5c6.12,5.61,9.8,12.77,12.84,20.24a270.64,270.64,0,0,0,16.7,33.88c8.72,15,14,31,9.06,48.66-4.43,15.9-18.26,25.22-35.85,23.52,4.4-1.1,8.06-1.44,11.48-2.81,11.84-4.74,15-15.3,17.54-26.13,3.27-13.84,1.3-27.41-6-39.29-10.17-16.55-18.8-33.81-27.28-51.21C368.67,572.93,365.11,568.94,359.45,567.44Z"/><path class="cls-3" d="M490,555.51c-8.59-6.87-9.56-14.62-2.91-24.57,8.44-12.61,19.38-22.06,34.4-26.21,4.39-1.21,8.77-.91,13.17-.87,3.93,0,3.55,3.7,4.43,6.06.81,2.15-.91,2.83-2.72,3.15-21.12,3.76-33,18.6-42.9,35.82C492.3,551,491.27,553.11,490,555.51Z"/><path class="cls-2" d="M405.16,434.2c.71.43,1.22,1.24.54,1.75-9.8,7.24-16.92,17.56-27.16,24.17-13,8.38-26.69,13.94-42.93,13.11-16.7-.85-33.47,0-49.79-4.65-10.87-3.1-20.74-8.46-30.83-13.36,1.81-7.78,1.8-7.76,8.23-3.22,15,10.63,32.16,15.13,50.19,16.46,21.35,1.58,41.82-1.71,60.73-12.38,10-5.63,18.74-12.95,27.78-19.88A35.22,35.22,0,0,1,405.16,434.2Z"/><path class="cls-2" d="M398,334.76c-21.53,19.4-57.63,1.81-69.9-21.8C349.61,328.22,372.39,335,398,334.76Z"/><path class="cls-3" d="M335.61,627.7c12.24-11.51,10.08-26.17,8.6-40.55-.27-2.63-1.69-4.53,2-6,3.93-1.61,5.59.35,6.83,3.17a36.94,36.94,0,0,1-.07,31.48c-3.2,7-10.55,9.27-16.69,12.81A6.63,6.63,0,0,0,335.61,627.7Z"/><path class="cls-2" d="M499,243.3c-2.16-6-.23-11.45,1.1-16.93,2-8,4-16.08,6-24.12.34-1.39.11-3.33,1.89-3.62,2.17-.35,3.32,1.46,4,3.16,1.72,4,1.58,8.16,1.1,12.45-.85,7.59-2.5,14.91-6.31,21.57C505,239,502.84,242,499,243.3Z"/><path class="cls-2" d="M25.54,223c.29-1.79.26-3.72.93-5.35,1-2.33,2.19-5.46,4.83-5.45s1.83,3.42,2.58,5.32c2.12,5.39,4.73,10.44,10.4,12.88,3.52,1.51,2.57,3,.65,5.23-6,6.81-9.07,6.79-14.51-.69C27.86,231.45,24.74,228,25.54,223Z"/><path class="cls-2" d="M22,226.71c1.34,1.68,1.29,3.39,1.66,5a21,21,0,0,0,10.88,14.49C37,247.53,40.63,250,39,252.72c-2,3.38-6,1.53-8.85-.25C21.9,247.29,17.81,234.69,22,226.71Z"/><path class="cls-2" d="M90.45,256c-4.46,7.38-18.67,5.68-22.69,1.56-1-1-1.85-2-.62-3.24.95-1,1.73-2.88,3.48-1.94a29.39,29.39,0,0,0,9.77,3.52C83.55,256.3,86.81,256,90.45,256Z"/><path class="cls-6" d="M359.29,649.16c4.67-2.41,9.42-4.69,13.87-8.93.11,4,5.43,6.8-.34,10.19C364,655.58,364.11,655.75,359.29,649.16Z"/><path class="cls-3" d="M206.11,307.41c4,0,7,1.72,10.31,2.6s2,2.88,1,4.67c-1.36,2.5-2.28,6.56-5.16,6.37-3.26-.21-3.93-4.29-4.75-7.26C207,311.87,206.66,309.9,206.11,307.41Z"/><path class="cls-6" d="M521.3,541c-5.13-6.63-5.16-6.88,1-11.09,5.39-3.66,11.09-6.64,17.89-6.91C532.27,527.29,525.09,532.29,521.3,541Z"/><path class="cls-6" d="M367.87,631.93c.22,1.48-.79,2.12-1.58,2.82-2.74,2.43-6,4-9.17,5.78s-3.84-.92-5-2.39c-2-2.49,1-2.35,2-3.09,2.62-2,5.33-3.82,8.11-5.55.92-.58,1.37-2.81,2.92-1.45C366.36,629.08,367,630.69,367.87,631.93Z"/><path class="cls-6" d="M542.09,529.82c-4.45,6.35-8.45,11.45-11.27,17.28-.62,1.29-.72,3.24-2.81,1.43-1.34-1.16-4-1.45-2.36-4.44C529.15,537.84,534,533.13,542.09,529.82Z"/><path class="cls-6" d="M359.9,655.59c-4.57,2.5-9.63,2.42-14.69,2.22-2.46-.09-2.7-2-2.94-3.86-.35-2.7,1.76-1.49,2.89-1.74,1.58-.36,3.23-.46,4.79-.89C354.35,650.1,358,650.67,359.9,655.59Z"/><path class="cls-6" d="M337.68,643c2.84-1.26,5.44-2.37,8-3.56,1.38-.64,2.63-1.22,3.76.43.5.73,1.51,1.4,1.06,2.28a3,3,0,0,1-3.33,1.31C344.12,643,340.9,645.77,337.68,643Z"/><path class="cls-5" d="M348.1,630.66c-3,4.33-7.15,5.9-13.18,6Z"/><path class="cls-3" d="M336.27,628.56c-.88.51-1.67,1.66-2.8.39l.13.07c.23-1.11,1.14-1.19,2-1.32A6.61,6.61,0,0,1,336.27,628.56Z"/><path class="cls-3" d="M333.47,629l.15.67-.42,0,.4-.64Z"/><path class="cls-6" d="M276.5,627.7,275,626.47Z"/><path class="cls-6" d="M275.24,626.75l-1.37-1.31Z"/><path class="cls-6" d="M272.88,624.55l-1.25-1.25Z"/><path class="cls-1" d="M343.89,192.79c-4.73-.1-8.68,1.3-12.6,3-1.19.51-2.68,2.07-3.91.56-1-1.21-.09-2.78.48-4.16a16.06,16.06,0,0,1,8.14-8.65c8.31-4,16.8-5.17,25.49-1,12.91,6.17,23.5,15,31,27.26a32.35,32.35,0,0,1,2.09,4.48c.5,1.19,1.06,2.5-.23,3.53s-2.48.51-3.62-.13c-1.92-1.07-3.82-2.18-5.62-3.43-10.44-7.22-20.92-14.35-32.54-19.63A18,18,0,0,0,343.89,192.79Z"/><path class="cls-1" d="M491.49,188.53c-15-2.29-23.79,7.16-33.48,14.48-4.1,3.1-7.94,6.54-12,9.7-1.64,1.28-3.85,2.19-5.56.67s-1-4,.09-5.61c9.18-14.05,20.16-25.83,37.88-28.56,5.49-.85,10.12,1,14,4.92.88.89,2,1.85,1.4,3.33A1.82,1.82,0,0,1,491.49,188.53Z"/><path class="cls-1" d="M367.56,251.75c-12.56-.68-24.29-3.62-33.79-12.56a15.79,15.79,0,0,1-2.24-2.42c-.94-1.36-2-3-.62-4.5,1.14-1.29,2.81-.63,4.12-.07,6.42,2.71,12.72,5.52,19.73,6.75,7.79,1.36,15.53,2.78,23.45,3a19.65,19.65,0,0,1,3.82.45c1.67.38,3.27,1.15,3.45,3.08s-1.31,3-2.83,3.67C377.88,251.39,372.79,251.86,367.56,251.75Z"/><path class="cls-1" d="M279.12,232.45c-3.18-4.48-5.47-7.54-7.58-10.72-1.93-2.91-3.19-2.16-4.66.42-2.75,4.82-2.43,9.88-1.47,15,.2,1.05.92,2.2-.33,2.95s-2-.29-3-.81c-6.79-3.69-8.68-18.37-5.18-24.55,2.28-4,1.31-5.43-2.54-6.41a22.31,22.31,0,0,1-3.66-1.21c-1.56-.7-4.53,0-4.34-2.44.23-2.9,3.35-2.38,5.34-2.48,8.72-.47,20.93,9.12,25.22,19.72C278.1,224.76,279.44,227.63,279.12,232.45Z"/><path class="cls-1" d="M439.65,294a11.16,11.16,0,0,1-7.88,7.21c-21.54,6.65-42.72,6.74-63.18-4-3.29-1.72-6.52-3.73-8.62-6.77-2.94-4.25-5.83-7.5-11.78-3.06,2.38-5.49,8.74-8.26,12.9-6.4.5.22,1.35.47,1.39.79,1.49,11,10.86,13.54,19,15.93C400.78,303.46,420.14,303,439.65,294Z"/><path class="cls-1" d="M452.09,248.24a21,21,0,0,1-8.93-1.64,3.34,3.34,0,0,1-2.32-3.9c.27-1.77,1.53-2.4,3.06-2.68a12.33,12.33,0,0,1,2.73-.31c12.48.57,22.21-5.25,31.05-13.22,1.29-1.16,2.52-3.32,4.57-1.84,1.77,1.28,1.8,3.46,1.31,5.56-1.41,6.05-5.59,9.71-10.72,12.62A40.68,40.68,0,0,1,452.09,248.24Z"/><path class="cls-1" d="M395.62,267.55c6.83,13.31,17.65,13.1,29,10.52,4.55-1,8.76-3.26,8.84-9.08s-4-7.82-8.72-9c-6-1.54-12-.47-18,.6-.47-2.35,1.25-2.5,2.23-2.84,7.76-2.68,15.67-3,23,.81,9,4.65,9.58,16.42.76,21.55-10.07,5.85-21,6.71-31.68,1.32C395.43,278.56,393.92,274.64,395.62,267.55Z"/><path class="cls-1" d="M342.09,437.54c25.28-5.92,48.4-18.42,73.8-23.62C392,424.25,368.39,435.24,342.09,437.54Z"/><path class="cls-1" d="M462.55,320.94l1.15-1.39c.8.78.28,1.52,0,2.28Z"/><path class="cls-1" d="M283.77,322.43l-.24.34.32-.26Z"/><path class="cls-1" d="M384.54,479.67l.1-1,.56.26-.75.66Z"/></svg>